<svg version="1.1" xmlns="http://www.w3.org/2000/svg" xmlns:xlink="http://www.w3.org/1999/xlink" width="1373" height="244"><defs/><g><g><rect fill="#C0C0C0" stroke="none" x="31" y="399" width="89.6" height="15" transform="matrix(1 0 0 1 -14 -382)" fill-opacity="0.2"/></g><g><rect fill="#C0C0C0" stroke="none" x="31" y="413" width="224" height="210" transform="matrix(1 0 0 1 -14 -382)" fill-opacity="0.2"/></g><g><rect fill="#ffffff" stroke="none" x="24" y="407" width="224" height="209" transform="matrix(1 0 0 1 -14 -382)"/></g><g><path fill="none" stroke="#000000" paint-order="fill stroke markers" d=" M 10 25 L 234 25 L 234 234 L 10 234 L 10 25 Z Z" stroke-miterlimit="10" stroke-dasharray=""/></g><g><rect fill="#ffffff" stroke="none" x="24" y="392" width="89.6" height="15" transform="matrix(1 0 0 1 -14 -382)"/></g><g><path fill="none" stroke="#000000" paint-order="fill stroke markers" d=" M 10 10 L 99.6 10 L 99.6 25 L 10 25 L 10 10 Z Z" stroke-miterlimit="10" stroke-dasharray=""/></g><g><rect fill="#ffffff" stroke="none" x="24" y="406" width="224" height="210" transform="matrix(1 0 0 1 -14 -382)"/></g><g><path fill="none" stroke="#000000" paint-order="fill stroke markers" d=" M 10 24 L 234 24 L 234 234 L 10 234 L 10 24 Z Z" stroke-miterlimit="10" stroke-dasharray=""/></g><g><g><path fill="none" stroke="none"/><text fill="#000000" stroke="none" font-family="Arial" font-size="13px" font-style="normal" font-weight="bold" text-decoration="undefined" x="136.5" y="420.5" text-anchor="middle" dominant-baseline="central" transform="matrix(1 0 0 1 -14 -382)">Cliente</text></g></g><g><rect fill="#C0C0C0" stroke="none" x="343" y="407" width="153.60000000000002" height="15" transform="matrix(1 0 0 1 -14 -382)" fill-opacity="0.2"/></g><g><rect fill="#C0C0C0" stroke="none" x="343" y="421" width="384" height="202" transform="matrix(1 0 0 1 -14 -382)" fill-opacity="0.2"/></g><g><rect fill="#ffffff" stroke="none" x="336" y="415" width="384" height="201" transform="matrix(1 0 0 1 -14 -382)"/></g><g><path fill="none" stroke="#000000" paint-order="fill stroke markers" d=" M 322 33 L 706 33 L 706 234 L 322 234 L 322 33 Z Z" stroke-miterlimit="10" stroke-dasharray=""/></g><g><rect fill="#ffffff" stroke="none" x="336" y="400" width="153.60000000000002" height="15" transform="matrix(1 0 0 1 -14 -382)"/></g><g><path fill="none" stroke="#000000" paint-order="fill stroke markers" d=" M 322 18 L 475.6 18 L 475.6 33 L 322 33 L 322 18 Z Z" stroke-miterlimit="10" stroke-dasharray=""/></g><g><rect fill="#ffffff" stroke="none" x="336" y="414" width="384" height="202" transform="matrix(1 0 0 1 -14 -382)"/></g><g><path fill="none" stroke="#000000" paint-order="fill stroke markers" d=" M 322 32 L 706 32 L 706 234 L 322 234 L 322 32 Z Z" stroke-miterlimit="10" stroke-dasharray=""/></g><g><g><path fill="none" stroke="none"/><text fill="#000000" stroke="none" font-family="Arial" font-size="13px" font-style="normal" font-weight="bold" text-decoration="undefined" x="528.5" y="428.5" text-anchor="middle" dominant-baseline="central" transform="matrix(1 0 0 1 -14 -382)">Logica de negocio</text></g></g><g><rect fill="#C0C0C0" stroke="none" x="815" y="407" width="99.20000000000005" height="15" transform="matrix(1 0 0 1 -14 -382)" fill-opacity="0.2"/></g><g><rect fill="#C0C0C0" stroke="none" x="815" y="421" width="248" height="202" transform="matrix(1 0 0 1 -14 -382)" fill-opacity="0.2"/></g><g><rect fill="#ffffff" stroke="none" x="808" y="415" width="248" height="201" transform="matrix(1 0 0 1 -14 -382)"/></g><g><path fill="none" stroke="#000000" paint-order="fill stroke markers" d=" M 794 33 L 1042 33 L 1042 234 L 794 234 L 794 33 Z Z" stroke-miterlimit="10" stroke-dasharray=""/></g><g><rect fill="#ffffff" stroke="none" x="808" y="400" width="99.20000000000005" height="15" transform="matrix(1 0 0 1 -14 -382)"/></g><g><path fill="none" stroke="#000000" paint-order="fill stroke markers" d=" M 794 18 L 893.2 18 L 893.2 33 L 794 33 L 794 18 Z Z" stroke-miterlimit="10" stroke-dasharray=""/></g><g><rect fill="#ffffff" stroke="none" x="808" y="414" width="248" height="202" transform="matrix(1 0 0 1 -14 -382)"/></g><g><path fill="none" stroke="#000000" paint-order="fill stroke markers" d=" M 794 32 L 1042 32 L 1042 234 L 794 234 L 794 32 Z Z" stroke-miterlimit="10" stroke-dasharray=""/></g><g><g><path fill="none" stroke="none"/><text fill="#000000" stroke="none" font-family="Arial" font-size="13px" font-style="normal" font-weight="bold" text-decoration="undefined" x="932.5" y="428.5" text-anchor="middle" dominant-baseline="central" transform="matrix(1 0 0 1 -14 -382)">Acceso a BBDD</text></g></g><g><rect fill="#C0C0C0" stroke="none" x="823" y="479" width="222.38623046875" height="49" transform="matrix(1 0 0 1 -14 -382)" fill-opacity="0.2"/></g><g><rect fill="#ffffff" stroke="none" x="816" y="472" width="222.38623046875" height="49" transform="matrix(1 0 0 1 -14 -382)"/></g><g><path fill="none" stroke="#000000" paint-order="fill stroke markers" d=" M 802 90 L 1024.38623046875 90 L 1024.38623046875 139 L 802 139 L 802 90 Z Z" stroke-miterlimit="10" stroke-dasharray=""/></g><g><g><path fill="none" stroke="none"/><text fill="#000000" stroke="none" font-family="Arial" font-size="13px" font-style="normal" font-weight="normal" text-decoration="undefined" x="927.693115234375" y="483.5" text-anchor="middle" dominant-baseline="central" transform="matrix(1 0 0 1 -14 -382)">«interface»</text></g></g><g><g><path fill="none" stroke="none"/><text fill="#000000" stroke="none" font-family="Arial" font-size="13px" font-style="normal" font-weight="bold" text-decoration="undefined" x="927.693115234375" y="498.5" text-anchor="middle" dominant-baseline="central" transform="matrix(1 0 0 1 -14 -382)">Interfaz interacción BBDD clientes</text></g></g><g><rect fill="#C0C0C0" stroke="none" x="823" y="559" width="223.80810546875" height="49" transform="matrix(1 0 0 1 -14 -382)" fill-opacity="0.2"/></g><g><rect fill="#ffffff" stroke="none" x="816" y="552" width="223.80810546875" height="49" transform="matrix(1 0 0 1 -14 -382)"/></g><g><path fill="none" stroke="#000000" paint-order="fill stroke markers" d=" M 802 170 L 1025.80810546875 170 L 1025.80810546875 219 L 802 219 L 802 170 Z Z" stroke-miterlimit="10" stroke-dasharray=""/></g><g><g><path fill="none" stroke="none"/><text fill="#000000" stroke="none" font-family="Arial" font-size="13px" font-style="normal" font-weight="normal" text-decoration="undefined" x="928.404052734375" y="563.5" text-anchor="middle" dominant-baseline="central" transform="matrix(1 0 0 1 -14 -382)">«interface»</text></g></g><g><g><path fill="none" stroke="none"/><text fill="#000000" stroke="none" font-family="Arial" font-size="13px" font-style="normal" font-weight="bold" text-decoration="undefined" x="928.404052734375" y="578.5" text-anchor="middle" dominant-baseline="central" transform="matrix(1 0 0 1 -14 -382)">Interfaz interacción BBDD pedidos</text></g></g><g><rect fill="#C0C0C0" stroke="none" x="1159" y="415" width="89.59999999999991" height="15" transform="matrix(1 0 0 1 -14 -382)" fill-opacity="0.2"/></g><g><rect fill="#C0C0C0" stroke="none" x="1159" y="429" width="224" height="194" transform="matrix(1 0 0 1 -14 -382)" fill-opacity="0.2"/></g><g><rect fill="#ffffff" stroke="none" x="1152" y="423" width="224" height="193" transform="matrix(1 0 0 1 -14 -382)"/></g><g><path fill="none" stroke="#000000" paint-order="fill stroke markers" d=" M 1138 41 L 1362 41 L 1362 234 L 1138 234 L 1138 41 Z Z" stroke-miterlimit="10" stroke-dasharray=""/></g><g><rect fill="#ffffff" stroke="none" x="1152" y="408" width="89.59999999999991" height="15" transform="matrix(1 0 0 1 -14 -382)"/></g><g><path fill="none" stroke="#000000" paint-order="fill stroke markers" d=" M 1138 26 L 1227.6 26 L 1227.6 41 L 1138 41 L 1138 26 Z Z" stroke-miterlimit="10" stroke-dasharray=""/></g><g><rect fill="#ffffff" stroke="none" x="1152" y="422" width="224" height="194" transform="matrix(1 0 0 1 -14 -382)"/></g><g><path fill="none" stroke="#000000" paint-order="fill stroke markers" d=" M 1138 40 L 1362 40 L 1362 234 L 1138 234 L 1138 40 Z Z" stroke-miterlimit="10" stroke-dasharray=""/></g><g><g><path fill="none" stroke="none"/><text fill="#000000" stroke="none" font-family="Arial" font-size="13px" font-style="normal" font-weight="bold" text-decoration="undefined" x="1264.5" y="436.5" text-anchor="middle" dominant-baseline="central" transform="matrix(1 0 0 1 -14 -382)">BBDD</text></g></g><g><rect fill="#C0C0C0" stroke="none" x="1201" y="487" width="152.18359375" height="45" transform="matrix(1 0 0 1 -14 -382)" fill-opacity="0.2"/></g><g><rect fill="#ffffff" stroke="none" x="1194" y="480" width="152.18359375" height="45" transform="matrix(1 0 0 1 -14 -382)"/></g><g><path fill="none" stroke="#000000" paint-order="fill stroke markers" d=" M 1180 98 L 1332.18359375 98 L 1332.18359375 143 L 1180 143 L 1180 98 Z Z" stroke-miterlimit="10" stroke-dasharray=""/></g><g><rect fill="#ffffff" stroke="none" x="1184" y="487" width="20" height="10" transform="matrix(1 0 0 1 -14 -382)"/></g><g><path fill="none" stroke="#000000" paint-order="fill stroke markers" d=" M 1170 105 L 1190 105 L 1190 115 L 1170 115 L 1170 105 Z Z" stroke-miterlimit="10" stroke-dasharray=""/></g><g><rect fill="#ffffff" stroke="none" x="1184" y="507" width="20" height="10" transform="matrix(1 0 0 1 -14 -382)"/></g><g><path fill="none" stroke="#000000" paint-order="fill stroke markers" d=" M 1170 125 L 1190 125 L 1190 135 L 1170 135 L 1170 125 Z Z" stroke-miterlimit="10" stroke-dasharray=""/></g><g><g><path fill="none" stroke="none"/><text fill="#000000" stroke="none" font-family="Arial" font-size="13px" font-style="normal" font-weight="bold" text-decoration="undefined" x="1275.591796875" y="493.5" text-anchor="middle" dominant-baseline="central" transform="matrix(1 0 0 1 -14 -382)">BBDD Clientes</text><path fill="none" stroke="#000000" paint-order="fill stroke markers" d=" M 1307.4599609375 118 L 1215.7236328125 118" stroke-miterlimit="10" stroke-dasharray=""/></g></g><g><rect fill="#C0C0C0" stroke="none" x="1201" y="559" width="152.18359375" height="45" transform="matrix(1 0 0 1 -14 -382)" fill-opacity="0.2"/></g><g><rect fill="#ffffff" stroke="none" x="1194" y="552" width="152.18359375" height="45" transform="matrix(1 0 0 1 -14 -382)"/></g><g><path fill="none" stroke="#000000" paint-order="fill stroke markers" d=" M 1180 170 L 1332.18359375 170 L 1332.18359375 215 L 1180 215 L 1180 170 Z Z" stroke-miterlimit="10" stroke-dasharray=""/></g><g><rect fill="#ffffff" stroke="none" x="1184" y="559" width="20" height="10" transform="matrix(1 0 0 1 -14 -382)"/></g><g><path fill="none" stroke="#000000" paint-order="fill stroke markers" d=" M 1170 177 L 1190 177 L 1190 187 L 1170 187 L 1170 177 Z Z" stroke-miterlimit="10" stroke-dasharray=""/></g><g><rect fill="#ffffff" stroke="none" x="1184" y="579" width="20" height="10" transform="matrix(1 0 0 1 -14 -382)"/></g><g><path fill="none" stroke="#000000" paint-order="fill stroke markers" d=" M 1170 197 L 1190 197 L 1190 207 L 1170 207 L 1170 197 Z Z" stroke-miterlimit="10" stroke-dasharray=""/></g><g><g><path fill="none" stroke="none"/><text fill="#000000" stroke="none" font-family="Arial" font-size="13px" font-style="normal" font-weight="bold" text-decoration="undefined" x="1275.591796875" y="565.5" text-anchor="middle" dominant-baseline="central" transform="matrix(1 0 0 1 -14 -382)">BBDD Pedidos</text><path fill="none" stroke="#000000" paint-order="fill stroke markers" d=" M 1307.456787109375 190 L 1215.726806640625 190" stroke-miterlimit="10" stroke-dasharray=""/></g></g><g><path fill="none" stroke="#000000" paint-order="fill stroke markers" d=" M 1042 154 L 1138 154" stroke-miterlimit="10" stroke-dasharray="3"/></g><g><path fill="none" stroke="#000000" paint-order="fill stroke markers" d=" M 1127.837325142376 158.209517756016 L 1138 154 L 1127.837325142376 149.790482243984" stroke-miterlimit="10" stroke-dasharray=""/></g><g><rect fill="#C0C0C0" stroke="none" x="65" y="487" width="152.18359375" height="45" transform="matrix(1 0 0 1 -14 -382)" fill-opacity="0.2"/></g><g><rect fill="#ffffff" stroke="none" x="58" y="480" width="152.18359375" height="45" transform="matrix(1 0 0 1 -14 -382)"/></g><g><path fill="none" stroke="#000000" paint-order="fill stroke markers" d=" M 44 98 L 196.18359375 98 L 196.18359375 143 L 44 143 L 44 98 Z Z" stroke-miterlimit="10" stroke-dasharray=""/></g><g><rect fill="#ffffff" stroke="none" x="48" y="487" width="20" height="10" transform="matrix(1 0 0 1 -14 -382)"/></g><g><path fill="none" stroke="#000000" paint-order="fill stroke markers" d=" M 34 105 L 54 105 L 54 115 L 34 115 L 34 105 Z Z" stroke-miterlimit="10" stroke-dasharray=""/></g><g><rect fill="#ffffff" stroke="none" x="48" y="507" width="20" height="10" transform="matrix(1 0 0 1 -14 -382)"/></g><g><path fill="none" stroke="#000000" paint-order="fill stroke markers" d=" M 34 125 L 54 125 L 54 135 L 34 135 L 34 125 Z Z" stroke-miterlimit="10" stroke-dasharray=""/></g><g><g><path fill="none" stroke="none"/><text fill="#000000" stroke="none" font-family="Arial" font-size="13px" font-style="normal" font-weight="bold" text-decoration="undefined" x="139.591796875" y="493.5" text-anchor="middle" dominant-baseline="central" transform="matrix(1 0 0 1 -14 -382)">Movil</text><path fill="none" stroke="#000000" paint-order="fill stroke markers" d=" M 142.20361328125 118 L 108.97998046875 118" stroke-miterlimit="10" stroke-dasharray=""/></g></g><g><rect fill="#C0C0C0" stroke="none" x="65" y="559" width="152.18359375" height="45" transform="matrix(1 0 0 1 -14 -382)" fill-opacity="0.2"/></g><g><rect fill="#ffffff" stroke="none" x="58" y="552" width="152.18359375" height="45" transform="matrix(1 0 0 1 -14 -382)"/></g><g><path fill="none" stroke="#000000" paint-order="fill stroke markers" d=" M 44 170 L 196.18359375 170 L 196.18359375 215 L 44 215 L 44 170 Z Z" stroke-miterlimit="10" stroke-dasharray=""/></g><g><rect fill="#ffffff" stroke="none" x="48" y="559" width="20" height="10" transform="matrix(1 0 0 1 -14 -382)"/></g><g><path fill="none" stroke="#000000" paint-order="fill stroke markers" d=" M 34 177 L 54 177 L 54 187 L 34 187 L 34 177 Z Z" stroke-miterlimit="10" stroke-dasharray=""/></g><g><rect fill="#ffffff" stroke="none" x="48" y="579" width="20" height="10" transform="matrix(1 0 0 1 -14 -382)"/></g><g><path fill="none" stroke="#000000" paint-order="fill stroke markers" d=" M 34 197 L 54 197 L 54 207 L 34 207 L 34 197 Z Z" stroke-miterlimit="10" stroke-dasharray=""/></g><g><g><path fill="none" stroke="none"/><text fill="#000000" stroke="none" font-family="Arial" font-size="13px" font-style="normal" font-weight="bold" text-decoration="undefined" x="139.591796875" y="565.5" text-anchor="middle" dominant-baseline="central" transform="matrix(1 0 0 1 -14 -382)">PC</text><path fill="none" stroke="#000000" paint-order="fill stroke markers" d=" M 134.621337890625 190 L 116.562255859375 190" stroke-miterlimit="10" stroke-dasharray=""/></g></g><g><path fill="none" stroke="#000000" paint-order="fill stroke markers" d=" M 234 154 L 322 154" stroke-miterlimit="10" stroke-dasharray="3"/></g><g><path fill="none" stroke="#000000" paint-order="fill stroke markers" d=" M 311.83732514237585 158.209517756016 L 322 154 L 311.83732514237585 149.790482243984" stroke-miterlimit="10" stroke-dasharray=""/></g><g><path fill="none" stroke="#000000" paint-order="fill stroke markers" d=" M 706 154 L 794 154" stroke-miterlimit="10" stroke-dasharray="3"/></g><g><path fill="none" stroke="#000000" paint-order="fill stroke markers" d=" M 783.8373251423759 158.209517756016 L 794 154 L 783.8373251423758 149.790482243984" stroke-miterlimit="10" stroke-dasharray=""/></g><g><rect fill="#C0C0C0" stroke="none" x="369" y="519" width="152.18359375" height="45" transform="matrix(1 0 0 1 -14 -382)" fill-opacity="0.2"/></g><g><rect fill="#ffffff" stroke="none" x="362" y="512" width="152.18359375" height="45" transform="matrix(1 0 0 1 -14 -382)"/></g><g><path fill="none" stroke="#000000" paint-order="fill stroke markers" d=" M 348 130 L 500.18359375 130 L 500.18359375 175 L 348 175 L 348 130 Z Z" stroke-miterlimit="10" stroke-dasharray=""/></g><g><rect fill="#ffffff" stroke="none" x="352" y="519" width="20" height="10" transform="matrix(1 0 0 1 -14 -382)"/></g><g><path fill="none" stroke="#000000" paint-order="fill stroke markers" d=" M 338 137 L 358 137 L 358 147 L 338 147 L 338 137 Z Z" stroke-miterlimit="10" stroke-dasharray=""/></g><g><rect fill="#ffffff" stroke="none" x="352" y="539" width="20" height="10" transform="matrix(1 0 0 1 -14 -382)"/></g><g><path fill="none" stroke="#000000" paint-order="fill stroke markers" d=" M 338 157 L 358 157 L 358 167 L 338 167 L 338 157 Z Z" stroke-miterlimit="10" stroke-dasharray=""/></g><g><g><path fill="none" stroke="none"/><text fill="#000000" stroke="none" font-family="Arial" font-size="13px" font-style="normal" font-weight="bold" text-decoration="undefined" x="443.591796875" y="525.5" text-anchor="middle" dominant-baseline="central" transform="matrix(1 0 0 1 -14 -382)">API REST</text><path fill="none" stroke="#000000" paint-order="fill stroke markers" d=" M 459.568603515625 150 L 399.614990234375 150" stroke-miterlimit="10" stroke-dasharray=""/></g></g><g><rect fill="#C0C0C0" stroke="none" x="553" y="519" width="152.18359375" height="45" transform="matrix(1 0 0 1 -14 -382)" fill-opacity="0.2"/></g><g><rect fill="#ffffff" stroke="none" x="546" y="512" width="152.18359375" height="45" transform="matrix(1 0 0 1 -14 -382)"/></g><g><path fill="none" stroke="#000000" paint-order="fill stroke markers" d=" M 532 130 L 684.18359375 130 L 684.18359375 175 L 532 175 L 532 130 Z Z" stroke-miterlimit="10" stroke-dasharray=""/></g><g><rect fill="#ffffff" stroke="none" x="536" y="519" width="20" height="10" transform="matrix(1 0 0 1 -14 -382)"/></g><g><path fill="none" stroke="#000000" paint-order="fill stroke markers" d=" M 522 137 L 542 137 L 542 147 L 522 147 L 522 137 Z Z" stroke-miterlimit="10" stroke-dasharray=""/></g><g><rect fill="#ffffff" stroke="none" x="536" y="539" width="20" height="10" transform="matrix(1 0 0 1 -14 -382)"/></g><g><path fill="none" stroke="#000000" paint-order="fill stroke markers" d=" M 522 157 L 542 157 L 542 167 L 522 167 L 522 157 Z Z" stroke-miterlimit="10" stroke-dasharray=""/></g><g><g><path fill="none" stroke="none"/><text fill="#000000" stroke="none" font-family="Arial" font-size="13px" font-style="normal" font-weight="bold" text-decoration="undefined" x="627.591796875" y="525.5" text-anchor="middle" dominant-baseline="central" transform="matrix(1 0 0 1 -14 -382)">Docker</text><path fill="none" stroke="#000000" paint-order="fill stroke markers" d=" M 635.630859375 150 L 591.552734375 150" stroke-miterlimit="10" stroke-dasharray=""/></g></g></g></svg>